<?xml version="1.0" encoding="UTF-8"?>
<!DOCTYPE svg PUBLIC "-//W3C//DTD SVG 1.1//EN" "http://www.w3.org/Graphics/SVG/1.1/DTD/svg11.dtd">
<!-- Creator: CorelDRAW X7 -->
<svg xmlns="http://www.w3.org/2000/svg" xml:space="preserve" width="4500px" height="3000px" version="1.1" style="shape-rendering:geometricPrecision; text-rendering:geometricPrecision; image-rendering:optimizeQuality; fill-rule:evenodd; clip-rule:evenodd"
viewBox="0 0 4500 3000"
 xmlns:xlink="http://www.w3.org/1999/xlink">
 <defs>
  <style type="text/css">
   <![CDATA[
    .fil15 {fill:#290104}
    .fil14 {fill:#290104}
    .fil17 {fill:#381401}
    .fil13 {fill:#5D1917}
    .fil12 {fill:#5D1917}
    .fil9 {fill:#9D401F}
    .fil10 {fill:#9D401F}
    .fil16 {fill:#A64917}
    .fil6 {fill:#E0711C}
    .fil3 {fill:#F0B113}
    .fil8 {fill:#F4911B}
    .fil7 {fill:#F5DB5A}
    .fil11 {fill:#F76E2A}
    .fil0 {fill:#FFAF1B}
    .fil2 {fill:#FFC71B}
    .fil1 {fill:#FFC71B}
    .fil4 {fill:#FFD744}
    .fil5 {fill:#FFE474}
   ]]>
  </style>
 </defs>
 <g id="Layer_x0020_1">
  <metadata id="CorelCorpID_0Corel-Layer"/>
  <g id="_548394368">
   <polygon class="fil0" points="4509,1 4509,2487 -9,2487 -9,1 "/>
   <path class="fil1" d="M2942 1850c34,-112 228,-62 332,-166 151,-151 70,-40 134,-80 45,-29 14,-136 199,-128 17,0 47,-194 207,-181 47,-137 -70,-139 213,-187 95,-16 -60,-84 214,-84 25,0 174,-134 268,-87l0 1242c-331,81 -915,36 -1173,-148 -88,-63 -287,-91 -346,-157 -1,-1 -48,-24 -48,-24z"/>
   <path class="fil2" d="M-9 1735c73,-36 212,-33 222,17 80,16 -33,-137 135,-116 82,11 -75,-114 232,-102 39,1 74,-98 159,2 22,26 67,30 99,30 -9,-118 151,-100 168,-162 31,-118 219,-14 233,-96 14,-84 246,-206 346,-88 103,121 109,-34 226,103 12,14 187,50 215,49 63,-2 195,161 221,216 96,201 154,192 -46,418 -161,182 -558,148 -786,129 -245,-21 -317,-2 -538,25 -90,11 -729,7 -886,-15l0 -410z"/>
   <path class="fil3" d="M3410 1944c-138,-20 39,-296 92,-195 10,2 -90,-113 111,-113 0,-233 75,46 65,-193 -1,-33 68,-122 131,-148 1,0 3,0 5,0 0,-1 0,-2 1,-3 32,-12 62,-6 78,37 36,-19 63,-37 63,-54 -6,-143 110,-115 140,-137 144,-103 217,-38 216,-38 -60,-40 -272,121 -272,182 0,78 -145,72 -125,207 31,6 57,21 67,51 0,2 -10,-71 152,-71 -37,0 -108,-219 144,-188 78,10 -12,83 73,-88 13,-26 256,-123 75,-86 -77,16 -43,114 14,-83 7,-26 33,-51 69,-69l0 1224c-150,37 -351,48 -550,31 -107,-30 -202,-72 -266,-130 -53,-48 -284,-137 -283,-136z"/>
   <path class="fil3" d="M1536 1184c-163,3 -184,104 -33,130 68,11 -25,8 -40,51 -21,7 -92,-53 -197,2 -108,57 61,37 84,81 14,29 48,-91 129,45 28,48 204,-42 304,58 51,51 -25,29 67,61 64,185 -257,406 -490,406 -384,0 -626,11 -967,146 -169,-3 -332,-9 -402,-19l0 -410c57,-28 154,-32 199,-9 4,8 7,17 8,28 13,75 254,-14 157,-34 -18,-53 30,-5 18,-63 -1,-6 -2,-14 -3,-23 20,-15 -25,-76 85,-95 7,3 15,7 23,12 56,36 14,-66 84,52 20,33 31,-30 93,43 28,32 206,-22 131,-34 -75,-13 -52,-31 -21,-58 23,10 51,12 73,12 -4,-53 25,-78 61,-96 9,7 18,16 27,27 2,2 99,-26 99,-28 -1,-22 109,-63 168,-127 24,-2 42,-11 46,-34 12,-72 185,-172 297,-124z"/>
   <circle class="fil4" cx="3092" cy="1689" r="353"/>
   <circle class="fil5" cx="3092" cy="1689" r="305"/>
   <path class="fil6" d="M14 2999l-3 -809 -20 0 0 -230 80 -39 77 16 96 -50 63 22 266 -117 3 2 4 -2c0,0 -1,1 -1,3l291 137 460 -189 149 58 761 -477 464 342 892 288 913 94 0 951 -4495 0z"/>
   <polygon class="fil7" points="1232,1974 1375,1826 1281,1848 1330,1743 1330,1743 1479,1801 "/>
   <polygon class="fil8" points="2236,1326 2390,1715 2131,1643 2434,1914 2136,2377 2180,2504 2026,2670 4509,2441 4509,2048 3596,1954 2704,1666 2240,1324 "/>
   <polygon class="fil8" points="780,1968 721,1882 667,1887 707,1900 716,1927 611,1865 653,1850 580,1795 870,1932 "/>
   <polygon class="fil8" points="243,1940 213,1921 171,1944 148,1937 244,1887 307,1909 "/>
   <path class="fil9" d="M1780 2530c445,-310 1357,-454 2729,-435l0 629 -2252 172c0,0 -491,-356 -477,-366z"/>
   <path class="fil10" d="M2315 2356l0 -43 -16 -24 -23 0 0 -7 -10 0 0 7 -31 0 -50 -34 -35 35 0 70c0,0 168,-4 165,-4z"/>
   <path class="fil10" d="M1704 2301l-11 41 10 -5 -12 10 -13 52 17 -7 -20 17 -8 31 27 -13 0 13 12 0 1 -13 28 13c0,0 -5,-26 -12,-55l-8 -11 7 5c-3,-11 -5,-22 -8,-33l-8 -7 7 3c-5,-23 -9,-41 -9,-41z"/>
   <path class="fil10" d="M2089 2267l-11 40 10 -4 -11 10 -14 52 18 -8 -20 17 -8 31 26 -12 1 12 12 0 1 -13 28 13c0,0 -6,-25 -12,-54l-9 -12 7 6c-2,-11 -5,-23 -7,-33l-8 -7 7 3c-5,-23 -10,-41 -10,-41z"/>
   <path class="fil10" d="M3034 2044l-11 41 10 -5 -11 10 -14 52 17 -7 -20 17 -8 31 27 -13 0 13 12 0 1 -13 29 13c0,0 -6,-26 -13,-55l-8 -11 7 5c-3,-11 -5,-22 -8,-33l-8 -7 8 3c-6,-23 -10,-41 -10,-41z"/>
   <path class="fil10" d="M3148 2022l-11 41 10 -4 -11 9 -14 52 17 -7 -20 17 -8 31 27 -12 0 12 12 0 1 -13 29 13c0,0 -6,-25 -13,-55l-8 -11 7 5c-3,-11 -5,-22 -7,-32l-9 -8 8 4c-6,-23 -10,-41 -10,-42z"/>
   <path class="fil10" d="M1659 2282l-11 41 10 -5 -11 10 -14 52 17 -8 -19 18 -8 31 26 -13 1 13 12 0 1 -13 28 13c0,0 -6,-26 -12,-55l-9 -11 7 5c-2,-11 -5,-22 -7,-33l-8 -7 7 3c-5,-23 -10,-41 -10,-41z"/>
   <path class="fil10" d="M2044 2276l-10 41 10 -4 -12 10 -13 52 17 -8 -20 17 -8 31 26 -12 1 12 12 0 1 -13 28 13c0,0 -5,-25 -12,-54l-8 -12 7 5c-3,-11 -5,-22 -8,-32l-8 -7 7 3c-5,-23 -9,-41 -10,-42z"/>
   <path class="fil10" d="M2989 2054l-11 40 10 -4 -11 10 -14 52 18 -8 -20 18 -8 31 26 -13 1 13 12 0 1 -13 28 13c0,0 -6,-26 -12,-55l-9 -11 7 5c-2,-11 -5,-22 -7,-33l-8 -7 7 3c-5,-23 -9,-41 -10,-41z"/>
   <path class="fil10" d="M3103 2032l-11 41 10 -5 -11 10 -14 52 18 -7 -20 17 -8 31 26 -12 1 12 12 0 1 -13 28 13c0,0 -6,-25 -12,-55l-9 -11 7 5c-2,-11 -5,-22 -7,-33l-8 -7 7 3c-5,-22 -9,-40 -10,-41z"/>
   <path class="fil11" d="M1619 2329l-6 23 6 -2 -7 6 -8 30 10 -5 -11 10 -5 18 16 -7 0 7 7 0 0 -7 17 7c0,0 -4,-15 -7,-31l-5 -7 4 3c-2,-6 -3,-13 -4,-19l-5 -4 4 2c-3,-13 -5,-24 -6,-24z"/>
   <path class="fil11" d="M2005 2323l-6 24 5 -3 -6 6 -8 30 10 -4 -11 10 -5 18 15 -7 0 7 7 0 1 -8 16 8c0,0 -3,-15 -7,-32l-5 -6 4 3c-1,-7 -3,-13 -4,-19l-5 -4 5 1c-3,-13 -6,-23 -6,-24z"/>
   <path class="fil10" d="M2950 2101l-7 23 6 -2 -6 6 -8 30 10 -5 -12 10 -5 18 16 -7 0 7 7 0 1 -8 16 8c0,0 -3,-15 -7,-31l-5 -7 4 3c-1,-6 -3,-13 -4,-19l-5 -4 4 2c-3,-13 -5,-24 -5,-24z"/>
   <path class="fil10" d="M3064 2079l-7 24 6 -3 -6 6 -8 30 10 -4 -12 9 -5 18 16 -7 0 7 7 0 1 -7 16 7c0,0 -3,-14 -7,-31l-5 -7 4 3c-1,-6 -3,-13 -4,-19l-5 -4 4 2c-3,-13 -5,-24 -5,-24z"/>
   <path class="fil10" d="M1743 2307l-11 40 10 -4 -11 10 -14 52 18 -8 -20 17 -8 32 26 -13 1 13 12 0 1 -14 28 14c0,0 -6,-26 -12,-55l-9 -11 7 5c-2,-11 -5,-23 -7,-33l-8 -7 7 3c-5,-23 -9,-41 -10,-41z"/>
   <path class="fil10" d="M2129 2301l-11 41 10 -4 -11 9 -14 52 17 -7 -20 17 -8 31 27 -12 0 12 12 0 1 -13 29 13c0,0 -6,-25 -13,-55l-8 -11 7 5c-3,-11 -5,-22 -8,-32l-8 -8 8 4c-6,-23 -10,-41 -10,-42z"/>
   <path class="fil10" d="M3073 2079l-10 40 10 -4 -12 10 -13 52 17 -8 -20 17 -8 32 26 -13 1 13 12 0 1 -14 28 14c0,0 -5,-26 -12,-55l-8 -11 7 5c-3,-11 -6,-23 -8,-33l-8 -7 7 3c-5,-23 -9,-41 -10,-41z"/>
   <path class="fil10" d="M3187 2057l-10 41 10 -5 -12 10 -13 52 17 -7 -20 17 -8 31 26 -13 1 13 12 0 1 -13 28 13c0,0 -5,-26 -12,-55l-8 -11 7 5c-3,-11 -5,-22 -8,-33l-8 -7 7 3c-5,-23 -9,-41 -10,-41z"/>
   <polygon class="fil12" points="1731,2397 1821,2304 1896,2404 1896,2505 1731,2505 "/>
   <path class="fil12" d="M1945 2422l63 -101 12 20 115 0 51 87 0 120c0,0 -237,9 -237,0 0,-9 0,-124 -4,-126z"/>
   <path class="fil10" d="M2329 2228l33 -54 7 10 61 0 27 47 0 64c0,0 -126,5 -126,0 0,-5 0,-66 -2,-67z"/>
   <path class="fil12" d="M2192 2640c-563,-301 -1274,-480 -2190,-491l0 756 2758 0c0,0 -561,-241 -568,-265z"/>
   <path class="fil13" d="M1622 2165l-22 86 21 -9 -24 20 -29 110 36 -16 -42 36 -17 66 56 -26 1 26 25 0 3 -28 59 28c0,0 -12,-54 -26,-115l-17 -24 15 10c-6,-23 -11,-46 -16,-69l-18 -15 16 7c-11,-48 -20,-86 -21,-87z"/>
   <path class="fil10" d="M4337 1962l-11 41 10 -4 -11 10 -14 52 17 -8 -20 17 -8 31 27 -12 0 12 12 0 1 -13 29 13c0,0 -6,-25 -13,-54l-8 -12 7 5c-3,-10 -5,-22 -7,-32l-9 -7 8 3c-6,-23 -10,-41 -10,-42z"/>
   <path class="fil10" d="M2735 2098l-11 41 10 -4 -11 9 -14 52 18 -7 -20 17 -8 31 26 -12 1 12 12 0 1 -13 28 13c0,0 -6,-25 -12,-55l-9 -11 7 5c-2,-11 -5,-22 -7,-32l-8 -8 7 4c-5,-23 -9,-41 -10,-42z"/>
   <path class="fil10" d="M4292 1972l-11 41 10 -4 -11 10 -14 51 18 -7 -20 17 -8 31 26 -12 1 12 12 0 1 -13 28 13c0,0 -6,-25 -12,-54l-9 -12 7 5c-2,-11 -5,-22 -7,-32l-8 -7 7 3c-5,-23 -9,-41 -10,-42z"/>
   <path class="fil10" d="M2300 2211l-11 41 10 -4 -12 10 -13 51 17 -7 -20 17 -8 31 27 -12 0 12 12 0 1 -13 29 13c0,0 -6,-25 -13,-54l-8 -12 7 5c-3,-11 -5,-22 -8,-32l-8 -8 8 4c-6,-23 -10,-41 -10,-42z"/>
   <path class="fil10" d="M2691 2108l-11 41 10 -5 -12 10 -13 52 17 -7 -20 17 -8 31 27 -12 0 12 12 0 1 -13 28 13c0,0 -5,-25 -12,-55l-8 -11 7 5c-3,-11 -5,-22 -8,-33l-8 -7 7 3c-5,-22 -9,-40 -9,-41z"/>
   <path class="fil10" d="M4253 2019l-7 24 6 -3 -6 6 -8 30 10 -4 -12 10 -4 18 15 -8 0 8 7 0 1 -8 16 8c0,0 -3,-15 -7,-32l-5 -6 4 2c-1,-6 -3,-12 -4,-18l-5 -5 4 2c-3,-13 -5,-23 -5,-24z"/>
   <path class="fil10" d="M2651 2155l-6 24 6 -3 -7 6 -8 30 10 -4 -11 9 -5 18 15 -7 0 7 7 0 1 -7 16 7c0,0 -3,-14 -7,-31l-5 -7 4 3c-1,-6 -2,-13 -4,-19l-5 -4 5 2c-3,-13 -6,-24 -6,-24z"/>
   <path class="fil10" d="M4376 1997l-10 41 10 -5 -12 10 -13 52 17 -7 -20 17 -8 31 26 -12 1 12 12 0 1 -13 28 13c0,0 -5,-25 -12,-55l-8 -11 7 5c-3,-11 -5,-22 -8,-33l-8 -7 7 4c-5,-23 -9,-41 -10,-42z"/>
   <path class="fil10" d="M2775 2133l-11 41 10 -5 -11 10 -14 52 17 -7 -20 17 -8 31 27 -13 0 13 12 0 1 -13 29 13c0,0 -6,-26 -13,-55l-8 -11 7 5c-3,-11 -5,-22 -7,-33l-9 -7 8 3c-6,-23 -10,-41 -10,-41z"/>
   <path class="fil12" d="M1536 2110l-22 86 21 -9 -24 21 -29 109 36 -15 -41 36 -17 65 55 -26 2 26 25 0 2 -27 60 27c0,0 -12,-53 -26,-115l-18 -24 15 11c-5,-23 -11,-47 -16,-69l-17 -15 15 7c-11,-49 -20,-87 -21,-88z"/>
   <path class="fil14" d="M1141 2118c3,2 -4,3 6,0 1,11 2,9 10,11 13,3 8,15 28,3l11 -3c-2,-8 -3,-4 -4,-9 -1,-1 -2,1 -1,-3 1,-4 1,0 5,1l14 0c-4,-6 -6,-4 -8,-12 5,-1 8,-3 12,-6 0,0 -1,-2 -1,-2 -2,-4 1,-12 3,-18 4,-13 -1,-12 23,-12 -1,-2 -1,-2 -3,-4 -3,-5 -10,-5 0,-9 10,-4 46,-1 56,2 7,2 4,2 12,3 0,18 6,69 9,88 3,21 3,153 3,184 0,11 -2,12 -2,22 -1,38 1,79 -7,115 -1,7 0,15 -2,23 -1,8 -3,8 -3,20 0,9 0,16 -1,24 -3,20 -1,25 -7,42 -4,11 -14,21 -15,34l82 0c-1,-12 -7,-15 -7,-30l0 -49c0,-11 4,-22 3,-30l-2 -31c-1,-21 -7,-38 -7,-65 0,-25 -2,-42 -2,-67 0,-21 2,-52 0,-71 -4,-38 -3,-125 4,-168l2 -104c9,1 3,0 13,0 -3,-10 -10,-8 4,-8 0,9 1,9 4,16 1,1 -2,-2 2,2l17 13c8,5 4,1 13,3 0,-5 -1,-5 -2,-10 9,7 2,3 16,11 10,6 3,7 21,7 1,9 4,11 18,4 -1,-1 -3,-4 -3,-4 -3,-5 -3,0 -1,-4l6 3c5,2 6,7 18,7 -2,-7 -2,-2 -4,-10 5,-2 6,-3 10,-6 0,-9 -3,-6 0,-13 4,-8 6,3 3,-11 6,4 19,19 25,11l2 -4c0,0 1,-1 1,-1 2,9 0,3 1,10 1,10 2,1 3,12 17,0 2,6 16,8 8,1 4,-4 0,-10 5,-1 6,-2 12,-2 -3,-6 -7,-7 2,-8 2,7 1,4 7,8l4 -4c3,-4 -8,-4 8,-4 3,10 14,4 23,11 3,3 5,5 9,4 9,-2 -1,-1 4,-8 1,-3 3,-3 6,-3l23 4c-2,-8 -2,-3 -4,-10 5,-1 6,-2 10,-4 -7,-12 -1,-8 3,-18 1,-2 -1,0 1,-2 6,-6 0,1 8,-3l-6 -7c8,-5 8,-3 8,-11 0,0 0,-2 0,-2l2 -22 -8 0c1,-7 3,-4 1,-10 0,0 0,-1 -1,-1l-3 -7c0,-4 2,-1 -1,-9 -2,-3 -4,-4 -6,-8 11,-3 10,-7 10,-20 -11,3 -9,7 -16,-4 12,-3 10,-8 10,-20 -8,3 -12,8 -20,10 2,-9 3,-14 -9,-14 7,-6 6,-11 7,-21 -10,2 -7,4 -15,6 4,-5 6,-5 6,-12 0,0 0,-1 0,-1l-2 -19c0,-6 0,-12 0,-18 -4,1 -16,6 -16,0 0,-12 8,-17 -10,-13l0 -16c-12,3 -12,6 -16,-6l0 -14c-5,1 -3,0 -7,3 -9,5 2,1 -8,5 -9,4 -6,-1 -16,-2 1,-5 2,-5 2,-10 -7,0 -7,1 -12,4 2,-7 3,-7 0,-12 -5,3 -8,7 -16,8 0,-9 1,-8 -2,-15 -11,1 -5,2 -11,6 -6,5 -2,0 -12,5 -1,-5 -2,-9 -4,-13 -8,6 -16,10 -12,-3 2,-6 2,1 2,-15 -11,1 -6,7 -22,8l0 -8c-14,1 -3,5 -16,6l0 -14c-9,1 -10,5 -20,7 -5,0 -1,0 -9,-1l0 -16c-9,1 -5,2 -12,6l0 -10c-7,2 -9,6 -16,8 -8,2 -4,-2 -2,-5 4,-6 2,-2 2,-9 0,-5 6,-9 -3,-7 -4,1 -6,4 -9,7 -1,-11 2,-4 -4,-6 -6,4 -5,5 -11,4 -8,-1 -6,-3 -12,-6 -2,2 -5,5 -9,7l-7 0c-8,1 -6,-2 -14,3 0,-9 4,-11 -1,-13 -6,-3 -8,4 -9,7l-2 -8c-19,4 -16,9 -15,-11 -8,2 -8,3 -12,9 -3,-3 -1,-8 -1,-11 0,-5 -1,-7 -1,-12 -5,1 -6,2 -12,2 1,-6 2,-3 0,-8 -10,3 -10,11 -22,9 -5,0 -7,-4 -7,2 2,12 6,8 -4,13 0,-18 -4,-1 -4,-20 -8,1 -3,0 -7,3 -12,9 -6,5 -23,3 2,10 4,6 4,19l-16 2c0,0 -1,0 -1,0 -4,1 -5,3 -7,8 -5,-3 -5,-3 -11,-4 1,12 2,4 4,14 -16,4 -1,4 -18,0 0,9 4,19 10,24l-6 0 0 -8c-14,4 -13,16 -30,6 0,10 3,12 6,20 -10,1 -3,2 -9,3 -4,0 -3,-1 -9,-3 0,7 0,4 2,9 -5,-1 -6,-2 -13,-2 2,3 3,6 5,10 -11,-1 -6,-5 -14,0 -7,4 -3,6 -15,6 1,-7 2,-3 0,-8 -3,1 -4,2 -6,4 -5,2 -2,2 -8,4 -3,1 -3,1 -7,1 -5,-1 -9,-4 -8,2 2,7 2,4 2,5 6,15 -5,6 -9,8 -6,2 2,-1 -2,8 -5,-2 -5,-3 -11,-4 -4,8 0,8 -10,6 4,-14 8,5 8,-24 -5,3 -8,6 -14,8 -3,2 -14,-2 -14,1 0,13 2,15 12,15l-2 2c-4,4 -3,3 -6,19 -10,-3 -6,0 -10,4l-6 2c8,17 1,12 -8,10 0,8 2,6 4,14 -4,2 3,2 -6,0 0,14 3,4 4,16 15,1 10,15 14,23 -3,1 0,0 -3,0 0,0 -5,0 -5,0 0,10 2,15 4,23 0,0 0,0 0,1 0,0 0,1 1,1 0,1 0,2 0,4 2,6 2,4 3,11l8 0c0,1 0,4 0,5 0,0 1,4 1,4 1,15 11,16 13,26 -10,-1 -17,-10 -12,5 7,21 10,-4 14,15l18 0c4,12 4,4 13,8 -1,-11 -4,-5 2,-14 10,4 -2,0 6,4l4 2c2,0 3,0 5,1 6,1 4,0 7,5 7,9 6,4 12,9 7,6 -4,3 7,5 9,2 6,-1 6,-3 0,-4 -1,-2 -2,-3 -8,-13 2,10 -3,-4 10,5 12,0 18,1l17 9c8,4 2,6 12,6 10,0 3,-3 2,-12 9,-2 8,-2 6,-10 8,0 5,1 10,-2 1,5 4,8 8,9l2 1c-4,4 -5,1 -8,5 -3,4 3,1 -3,4l-3 1c-3,2 -7,6 -11,8 -10,4 -9,1 -15,1 -8,0 -6,7 -33,8 -1,11 -10,6 -18,6 0,10 6,14 -2,15 -10,2 2,-1 -8,-1l-8 2c1,5 1,5 2,10 -12,3 -5,1 -16,0 0,10 3,7 4,16 7,1 3,0 8,2 9,5 11,16 14,23 -8,-1 -8,-2 -18,-2 5,22 8,11 18,27 6,11 19,15 28,22 5,4 18,5 21,-3 7,5 3,5 12,8l20 3 -2 -9zm71 -95l12 10 -12 0 0 -10zm33 6c2,-2 8,3 2,1 0,0 -6,3 -2,-1zm201 -20l0 6 -4 0c1,-6 -1,-3 4,-6zm83 -10c2,-2 8,3 2,1 0,0 -5,2 -2,-1zm-246 -4l0 -6 6 0c2,6 2,2 5,7 1,2 0,1 2,3l9 8c8,4 -4,4 11,4 3,11 4,10 1,21 -9,27 -12,15 -32,13 -46,-5 -19,-8 -24,-23 -2,-5 -3,-3 -4,-9 5,-1 6,-2 10,-4 -1,-5 -1,-5 -2,-10 6,3 6,2 14,2 -2,-9 -4,-5 4,-6zm21 -6c-6,-6 6,5 0,0zm233 -11c3,3 2,3 4,6 -5,-2 -3,0 -4,-6zm67 0l1 1c0,0 -1,0 -1,-1zm-390 -9c0,-1 5,-4 8,-5l-8 5zm179 -13c5,6 8,9 12,16 -14,3 -4,7 -18,4 1,-9 2,-6 8,-10l-2 -9c0,0 0,-1 0,-1zm-110 6c-23,11 -24,15 -24,-4 -12,3 -3,8 -18,8l0 -4c-9,0 -10,2 -14,6 0,-9 -1,-9 -3,-16 8,-2 5,-1 9,-6 22,15 11,-3 11,-4 2,-6 2,1 14,-1 1,0 3,-5 13,3 6,6 10,9 12,18zm90 -16c3,-6 13,-15 20,-16 0,4 5,14 -20,16zm-35 -16c25,2 3,7 23,8 -12,21 -10,14 -19,14 0,-11 -3,-11 -4,-22zm-81 4l1 0c0,0 -1,0 -1,0zm-69 4l10 0c-6,8 -13,1 -14,-2 -1,-3 -4,1 0,-3 6,-5 3,1 4,5zm103 -6l9 -5c1,6 8,24 7,27 -3,12 -14,-4 -18,-8 3,-7 -1,-2 9,-6l-7 -8zm265 -6c-1,5 0,10 -4,6 -5,-5 -1,-4 4,-6zm-291 -5c0,-5 3,0 1,0 0,0 -1,6 -1,0zm138 11c-3,-5 0,-3 -6,-4l0 -4c23,-7 36,-25 43,-27 -2,8 0,7 -1,11 -2,11 -12,6 -20,5 1,7 3,9 -1,13 -4,3 -11,4 -15,6zm232 -15c2,-2 7,4 2,1 0,0 -6,3 -2,-1zm-248 -4c4,4 1,2 -4,6 -3,2 -4,3 -7,6 -5,3 -9,6 -13,9 2,-11 0,-12 12,-17 8,-4 10,-2 12,-4zm-219 0c0,-5 1,-5 2,-10 9,2 4,4 18,4 10,1 12,-1 14,8 -8,0 -14,-1 -20,-1 -5,1 -14,5 -14,-1zm209 -4c-3,3 -7,0 -4,-2 3,-3 -1,-2 4,2zm-112 -4c5,2 3,0 6,5 2,2 4,3 -1,4 -5,2 -8,-3 -5,-9zm81 2l1 1c0,0 -1,-1 -1,-1zm222 -4c0,-5 7,0 2,0 -2,0 -2,5 -2,0zm-236 -2c-1,-5 4,-1 2,0l0 0c-4,0 -1,5 -2,0zm-152 -8l1 -2 7 3c-3,1 -6,1 -8,-1zm439 0l0 -6 6 0c-3,9 1,3 -6,6zm-460 -8l0 6 -8 0c2,-7 1,-5 8,-6zm122 -12l4 0c1,9 3,7 5,14 4,12 -1,6 -7,6 -9,0 1,4 -8,0 2,-5 5,-4 7,-9 0,0 0,0 0,-1l-1 -10zm130 6l0 24c-12,3 -14,12 -22,0 5,-7 2,-1 8,-7 8,-7 2,-3 2,-7 0,-3 0,-6 5,-9 1,0 1,0 1,0 4,-2 1,-1 6,-1zm13 12c0,-16 5,-12 6,-24l6 0c0,2 6,11 -12,24zm-88 -30c5,6 4,1 4,10 -8,0 -7,4 -9,-1 -2,-4 3,-8 5,-9zm77 6l1 0c0,0 -1,0 -1,0zm-180 -6c-1,12 1,6 -5,6 -5,0 0,-2 -4,0l5 16c-8,-2 -3,-2 -11,-4 -1,22 1,8 2,22 -37,-9 -12,-13 -32,-18 7,-10 0,5 8,-12 10,4 10,2 20,2 -2,-6 -1,-2 -2,-10 7,-1 8,-2 13,-4 -4,-6 -12,-11 2,-11 9,0 4,8 11,13l3 1c0,0 1,0 1,0 0,0 0,0 1,1 -6,2 -7,1 -12,-2zm-1 -20c7,1 5,-1 7,5l-7 -5zm-166 -7c0,-4 6,-5 7,1 0,7 -7,2 -7,-1zm266 -2l1 1c0,0 -1,-1 -1,-1zm4 -4c0,-5 3,0 1,0 0,0 -1,6 -1,0zm-93 -8c5,3 7,9 10,14 -23,0 -9,-11 -10,-14zm4 -12c7,2 4,1 8,6l6 10c-4,-3 -12,-12 -14,-16zm47 4l-1 -2c1,-4 -2,-3 0,0 2,2 5,7 1,2zm111 -8c0,-2 4,-10 3,-2 0,0 0,0 -1,1 0,0 -2,7 -2,1zm35 -4c6,1 4,0 6,6 -11,-6 -2,-1 -6,-6zm-124 12c4,9 2,13 -1,21 -5,9 -3,12 -3,23 -15,-10 -3,-17 -10,-29 0,0 0,-1 0,-1 10,-6 8,-2 8,-18 -1,0 -1,-1 -1,0 0,0 -1,0 -1,-1 0,0 -1,0 -1,0 -5,-2 -5,-2 -5,-5 7,-2 7,-2 8,-11 10,6 11,4 16,3 5,-1 -1,-2 3,-1 2,1 4,5 5,7 -12,17 -7,7 -18,12zm108 -14c0,-6 3,-1 1,0 0,0 -1,5 -1,0zm-147 -11c0,-5 8,0 2,1 -2,0 -2,4 -2,-1zm-44 -4l0 1c0,0 -1,0 0,-1zm40 -6l1 1c0,0 -1,-1 -1,-1zm264 -16l1 1c0,0 -1,-1 -1,-1zm-337 2c-6,1 1,-7 1,-4 0,1 1,4 -1,4zm333 -6c1,-4 11,0 2,0 -1,0 -2,5 -2,0zm-250 -4c8,1 8,1 9,8 -5,-2 -2,0 -5,-3 -2,-2 -3,-4 -4,-5zm130 -14c4,-4 7,5 3,2 -2,-1 -6,1 -3,-2zm9 -6c-3,6 4,2 -7,4 3,-3 3,-2 7,-4zm-165 -35c2,-2 11,3 3,1 -1,0 -6,2 -3,-1zm-12 -14c0,-1 8,-3 2,0 0,0 -4,6 -2,0zm61 -2l0 0c0,0 0,0 0,0z"/>
   <path class="fil10" d="M3919 2050c1,0 0,0 1,0 0,1 0,1 1,1 2,0 1,2 4,0l1 0c0,-1 0,-1 0,-1 0,0 0,0 0,-1 0,0 0,0 0,1l2 0c0,-1 -1,-1 -1,-2 1,0 1,0 2,-1 0,0 0,0 0,0 -1,-1 0,-2 0,-2 1,-2 0,-2 3,-2 0,0 0,0 0,-1 -1,0 -2,0 0,-1 1,0 6,0 7,1 1,0 1,0 2,0 0,2 0,9 1,11 0,3 0,21 0,25 0,1 0,1 0,3 0,5 0,10 -1,15 0,1 0,2 0,3 0,1 -1,1 -1,2 0,1 0,2 0,3 0,3 0,4 -1,6 0,1 -2,3 -2,4l11 0c0,-1 -1,-2 -1,-4l0 -6c0,-1 1,-3 1,-4l-1 -4c0,-3 -1,-5 -1,-9 0,-3 0,-5 0,-8 0,-3 0,-7 0,-10 0,-5 0,-16 1,-22l0 -13c1,0 0,0 2,0 -1,-2 -2,-1 0,-1 0,1 0,1 1,2 0,0 -1,-1 0,0l2 2c1,0 1,0 2,0 0,-1 0,-1 0,-1 1,1 0,0 2,1 1,1 0,1 2,1 1,1 1,2 3,1 0,0 -1,-1 -1,-1 0,-1 0,0 0,0l1 0c1,0 1,1 2,1 0,-1 0,0 0,-1 1,-1 1,-1 1,-1 0,-1 0,-1 0,-2 1,-1 1,0 1,-1 0,0 2,2 3,1l0 0c0,0 0,-1 0,-1 1,2 0,1 0,2 1,1 1,0 1,1 2,0 0,1 2,1 1,0 0,0 0,-1 1,0 1,0 2,0 -1,-1 -1,-1 0,-1 0,1 0,0 1,1l0 -1c1,0 -1,0 1,0 1,1 2,0 3,1 1,1 1,1 2,1 1,-1 -1,0 0,-1 0,-1 0,-1 1,-1l3 1c0,-1 -1,-1 -1,-2 1,0 1,0 2,0 -1,-2 -1,-1 0,-2 0,-1 0,0 0,-1 1,0 0,0 1,0l-1 -1c1,-1 1,0 1,-1 0,0 0,-1 0,-1l1 -3 -1 0c0,0 0,0 0,-1 0,0 0,0 0,0l-1 -1c0,0 1,0 0,-1 0,-1 0,-1 -1,-1 2,-1 2,-1 2,-3 -2,1 -1,1 -2,0 1,-1 1,-1 1,-3 -1,0 -2,1 -3,1 0,-1 1,-1 -1,-2 1,0 1,-1 1,-2 -1,0 -1,0 -2,1 1,-1 1,-1 1,-2 0,0 0,0 0,0l0 -3c0,-1 0,-1 0,-2 -1,0 -3,1 -3,0 0,-2 1,-2 -1,-2l0 -2c-2,1 -2,1 -2,-1l0 -2c-1,1 0,1 -1,1 -1,1 0,0 -1,1 -1,0 -1,-1 -2,-1 0,0 0,0 0,-1 -1,0 -1,0 -1,0 0,0 0,0 0,-1 -1,0 -2,1 -3,1 0,-1 1,-1 0,-2 -1,0 0,0 -1,1 -1,0 0,0 -2,0 0,0 0,-1 0,-1 -1,1 -2,1 -2,-1 0,0 0,0 0,-2 -1,1 0,1 -3,1l0 -1c-1,1 0,1 -2,1l0 -2c-1,0 -1,1 -2,1 -1,0 0,0 -1,0l0 -2c-2,0 -1,0 -2,1l0 -2c-1,1 -1,1 -2,2 -1,0 -1,-1 0,-1 0,-1 0,0 0,-1 0,-1 1,-1 0,-1 -1,0 -1,0 -2,1 0,-2 1,-1 0,-1 -1,0 -1,1 -2,1 -1,-1 0,-1 -1,-1 -1,0 -1,0 -1,1l-1 0c-1,0 -1,-1 -2,0 0,-1 0,-1 0,-2 -1,0 -1,1 -2,1l0 -1c-2,1 -2,1 -2,-1 -1,0 -1,0 -1,1 -1,-1 0,-1 0,-2 0,0 -1,0 -1,-1 0,0 0,0 -1,0 0,-1 0,0 0,-1 -1,0 -1,1 -3,1 -1,0 -1,0 -1,1 0,1 1,1 0,1 0,-2 -1,0 -1,-2 -1,0 0,0 -1,0 -2,1 -1,1 -3,0 0,2 1,1 1,3l-2 0c-1,0 -1,0 -1,0 0,0 0,1 -1,1 0,0 0,0 -1,0 0,1 0,0 1,1 -3,1 -1,1 -3,0 0,2 1,3 2,4l-1 0 0 -1c-2,0 -2,2 -4,0 0,2 0,2 1,3 -2,0 -1,0 -2,0 0,0 0,0 -1,0 0,1 0,1 0,1 0,0 0,0 -1,0 0,0 0,1 0,1 -1,0 0,0 -1,0 -1,1 -1,1 -2,1 0,-1 0,0 0,-1 -1,0 -1,0 -1,0 -1,1 0,1 -1,1 -1,0 -1,0 -1,0 -1,0 -1,0 -1,0 0,1 0,1 0,1 1,2 -1,1 -1,1 -1,0 0,0 0,1 -1,0 -1,0 -2,0 0,1 0,1 -1,0 0,-1 1,1 1,-3 -1,1 -1,1 -2,1 0,1 -2,0 -2,0 0,2 0,2 2,2l-1 1c0,0 0,0 0,2 -2,0 -1,0 -2,1l0 0c1,2 0,2 -2,1 1,1 1,1 1,2 0,0 1,0 -1,0 0,2 1,1 1,2 2,0 1,2 2,3 -1,0 0,0 -1,0 0,0 0,0 0,0 0,2 0,2 0,3 0,0 0,0 0,0 0,0 0,1 0,1 0,0 0,0 0,0 0,1 1,1 1,2l1 0c0,0 0,0 0,0 0,0 0,1 0,1 0,2 1,2 2,3 -2,0 -3,-1 -2,1 1,3 1,-1 2,2l2 0c1,1 1,0 2,1 0,-2 -1,-1 0,-2 1,0 0,0 1,1l0 0c1,0 1,0 1,0 1,0 1,0 1,1 1,1 1,0 2,1 1,0 -1,0 1,0 1,1 0,0 0,0 0,0 0,0 0,0 -1,-2 0,1 0,-1 1,1 1,0 2,0l2 1c1,1 1,1 2,1 1,0 0,0 0,-1 1,-1 1,-1 1,-2 1,0 1,0 1,0 0,1 1,1 1,1l1 0c-1,1 -1,1 -2,1 0,1 1,0 0,1l0 0c-1,0 -1,0 -2,1 -1,0 -1,0 -2,0 -1,0 0,1 -4,1 0,1 -1,1 -2,1 0,1 0,1 -1,2 -1,0 1,0 -1,-1l-1 1c0,0 0,0 0,1 -1,0 0,0 -2,0 0,1 1,1 1,2 1,0 0,0 1,1 1,0 1,2 2,2 -1,0 -1,0 -3,0 1,3 1,2 3,4 1,1 2,2 3,3 1,0 3,0 3,-1 1,1 1,1 2,1l2 1 0 -1zm10 -13l1 1 -1 0 0 -1zm4 1c0,0 1,0 0,0 0,0 -1,0 0,0zm26 -3l0 1 0 0c0,-1 0,0 0,-1zm11 -1c0,0 1,0 0,0 0,0 0,0 0,0zm-32 -1l0 0 1 0c0,0 0,0 0,1 0,0 0,0 0,0l2 1c1,1 -1,0 1,0 0,2 1,2 0,3 -1,4 -1,2 -4,2 -6,-1 -2,-1 -3,-3 0,-1 0,-1 -1,-1 1,0 1,-1 2,-1 0,0 0,0 -1,-1 1,0 1,0 2,0 0,-1 0,-1 1,-1zm3 0c-1,-1 0,0 0,0zm30 -2c1,1 1,1 1,1 -1,0 -1,0 -1,-1zm9 0l0 0c0,0 0,0 0,0zm-51 -1c0,0 0,-1 1,-1l-1 1zm23 -2c1,1 1,1 2,2 -2,1 -1,1 -3,1 1,-1 1,-1 2,-1l-1 -2c0,0 0,0 0,0zm-14 1c-3,2 -3,2 -3,0 -2,0 -1,1 -3,1l0 -1c-1,0 -1,0 -2,1 0,-1 0,-1 0,-2 1,-1 1,0 1,-1 3,2 2,0 2,-1 0,0 0,1 2,0 0,0 0,0 1,1 1,0 2,1 2,2zm12 -2c0,-1 1,-2 2,-2 0,0 1,2 -2,2zm-5 -2c3,0 0,1 3,1 -1,3 -1,2 -2,2 0,-2 -1,-2 -1,-3zm-11 0l0 0c0,0 0,0 0,0zm-9 1l2 0c-1,1 -2,0 -2,0 0,-1 -1,0 0,-1 1,0 0,0 0,1zm14 -1l1 0c0,0 1,3 1,3 0,2 -2,-1 -2,-1 0,-1 -1,0 1,-1l-1 -1zm35 -1c0,1 0,2 -1,1 -1,-1 0,0 1,-1zm-39 0c0,-1 1,0 1,0 0,0 -1,0 -1,0zm19 1c-1,-1 0,0 -1,0l0 -1c3,-1 4,-3 5,-3 0,1 0,0 0,1 0,1 -1,1 -2,1 0,1 0,1 0,1 -1,1 -2,1 -2,1zm30 -2c0,0 1,1 0,0 0,0 0,1 0,0zm-33 0c1,0 1,0 0,0 0,1 -1,1 -1,1 -1,1 -1,1 -2,1 1,-1 0,-1 2,-2 1,0 1,0 1,0zm-28 0c0,-1 0,-1 0,-2 1,1 1,1 2,1 2,0 2,0 2,1 -1,0 -2,0 -2,0 -1,0 -2,0 -2,0zm27 -1c0,1 -1,0 0,0 0,-1 0,-1 0,0zm-15 0c1,0 1,0 1,0 0,1 1,1 0,1 0,0 -1,-1 -1,-1zm11 0l0 0c0,0 0,0 0,0zm29 -1c0,0 1,0 0,0 0,0 0,1 0,0zm-31 0c0,-1 1,0 1,0l-1 0c0,0 0,1 0,0zm-20 -1l0 0 1 0c0,0 -1,0 -1,0zm58 0l0 -1 1 0c-1,1 0,1 -1,1zm-60 -1l0 1 -1 0c0,-1 0,-1 1,-1zm16 -2l0 0c0,2 0,1 1,2 0,2 0,1 -1,1 -1,0 0,0 -1,0 0,-1 0,-1 1,-1 0,0 0,0 0,0l0 -2zm17 1l0 3c-2,1 -2,2 -3,0 0,-1 0,0 1,-1 1,-1 0,0 0,-1 0,0 0,0 1,-1 0,0 0,0 0,0 0,0 0,0 1,0zm1 2c0,-2 1,-2 1,-3l1 0c0,0 1,1 -2,3zm-11 -4c0,1 0,0 0,1 -1,0 -1,1 -1,0 0,-1 0,-1 1,-1zm10 1l0 0c0,0 0,0 0,0zm-24 -1c0,1 0,1 0,1 -1,0 0,-1 -1,0l1 2c-1,-1 -1,-1 -2,-1 0,3 0,1 1,3 -5,-1 -2,-2 -5,-2 1,-2 0,0 1,-2 2,1 2,0 3,0 0,0 0,0 0,-1 1,0 1,0 1,-1 0,0 -1,-1 1,-1 1,0 0,1 1,2l1 0c0,0 0,0 0,0 0,0 0,0 0,0 -1,0 -1,0 -2,0zm0 -3c1,0 1,0 1,1l-1 -1zm-22 -1c0,0 1,0 1,0 0,1 -1,1 -1,0zm35 0l0 0c0,0 0,0 0,0zm1 -1c0,0 0,0 0,0 0,0 0,1 0,0zm-12 -1c0,1 0,2 1,2 -3,0 -1,-1 -1,-2zm0 -1c1,0 1,0 1,1l1 1c-1,0 -2,-2 -2,-2zm6 0l0 0c0,0 0,0 0,0 0,0 1,1 0,0zm15 -1c0,0 0,-1 0,0 0,0 0,0 0,0 0,0 0,1 0,0zm4 0c1,0 1,0 1,1 -1,-1 0,-1 -1,-1zm-16 1c1,2 0,2 0,3 -1,1 0,2 0,3 -2,-1 -1,-2 -2,-4 0,0 0,0 0,0 2,-1 1,0 1,-2 0,0 0,0 0,0 0,0 0,0 0,0 0,0 0,0 0,0 -1,-1 -1,-1 -1,-1 1,0 1,0 1,-1 2,0 2,0 3,0 0,0 -1,0 0,0 0,0 0,1 1,1 -2,2 -1,1 -3,1zm14 -2c0,0 1,0 0,0 0,0 0,1 0,0zm-19 -1c0,-1 1,0 0,0 0,0 0,1 0,0zm-6 0l0 0c0,0 0,0 0,0zm6 -1l0 0c0,0 0,0 0,0zm34 -2l0 0c0,0 0,0 0,0zm-44 0c-1,0 0,-1 0,-1 0,0 0,1 0,1zm44 -1c0,0 1,0 0,0 0,0 0,1 0,0zm-33 0c1,0 1,0 1,1 -1,-1 0,0 -1,-1 0,0 0,0 0,0zm17 -2c0,-1 1,0 0,0 0,0 0,0 0,0zm1 -1c0,1 1,0 -1,0 1,0 1,0 1,0zm-22 -5c1,0 2,1 1,0 0,0 -1,1 -1,0zm-1 -2c0,0 1,0 0,0 0,0 0,1 0,0zm8 0l0 0c0,0 0,0 0,0z"/>
   <path class="fil14" d="M1139 2358c2,1 -2,1 4,0 0,7 1,5 6,6 8,2 5,10 18,3l6 -3c-1,-5 -1,-2 -2,-5 -1,-1 -1,1 -1,-2 1,-3 1,0 3,1l9 0c-2,-4 -4,-3 -5,-8 3,0 5,-2 8,-3 0,-1 -1,-2 -1,-2 -1,-3 1,-7 2,-11 3,-8 -1,-8 14,-8 -1,-1 0,-1 -2,-2 -2,-3 -6,-3 0,-6 7,-2 29,0 35,1 5,2 3,2 8,2 0,12 3,44 5,55 2,13 3,96 2,115 0,7 -1,8 -1,14 -1,24 0,50 -4,72 -1,5 -1,9 -1,14 -1,5 -3,5 -3,13 0,6 1,10 0,15 -2,13 -1,16 -5,26 -2,7 -8,14 -9,22l51 0c0,-8 -4,-10 -4,-19l0 -31c0,-7 3,-14 2,-18l-2 -20c0,-13 -3,-24 -3,-41 0,-15 -2,-26 -2,-42 0,-12 1,-32 0,-44 -3,-24 -1,-78 2,-105l2 -65c6,1 2,0 8,0 -2,-6 -6,-5 2,-5 0,6 1,6 3,10 0,1 -1,-1 1,2l11 7c5,3 2,1 8,2 0,-3 0,-3 -1,-6 6,4 1,2 9,7 7,3 3,4 14,4 0,6 3,7 11,3 0,-1 -2,-3 -2,-3 -1,-3 -1,0 0,-2l3 2c3,1 4,4 12,4 -1,-4 -1,-1 -3,-6 3,-2 4,-2 7,-4 -1,-6 -3,-3 -1,-8 3,-5 4,2 2,-7 4,3 12,12 16,7l1 -2c0,-1 1,-1 1,-1 1,5 0,2 0,6 1,6 2,1 2,8 11,0 2,3 10,4 5,1 3,-2 0,-6 3,0 4,-1 8,-1 -2,-3 -5,-4 1,-5 1,4 1,3 4,5l3 -2c2,-3 -5,-3 5,-3 1,7 9,3 14,7 2,2 3,3 6,2 5,-1 -1,0 2,-5 1,-1 2,-1 4,-1l14 2c-1,-5 -1,-2 -2,-6 3,-1 4,-1 6,-3 -4,-7 0,-5 2,-11 1,-1 -1,0 1,-1 3,-4 0,0 5,-2l-4 -5c5,-3 5,-1 5,-6 0,0 0,-1 0,-2l1 -13 -5 0c1,-5 2,-3 1,-6 0,-1 0,-1 0,-1l-3 -5c0,-2 2,0 0,-5 -1,-2 -3,-3 -4,-5 7,-2 6,-5 6,-13 -7,2 -5,5 -10,-2 7,-2 6,-5 6,-13 -4,2 -7,5 -12,6 1,-5 2,-8 -5,-9 3,-3 3,-6 3,-12 -5,1 -4,2 -8,4 2,-4 3,-4 3,-8 0,0 0,0 0,-1l-1 -12c0,-4 0,-7 0,-11 -2,1 -10,4 -10,0 0,-7 5,-10 -6,-8l0 -10c-8,2 -8,4 -10,-4l-1 -9c-3,1 -1,0 -4,2 -5,4 2,1 -5,4 -6,2 -3,-1 -10,-2 1,-3 1,-3 2,-6 -5,0 -5,1 -8,2 1,-4 2,-4 0,-7 -3,2 -5,4 -10,5 0,-6 0,-5 -1,-9 -7,0 -4,1 -7,4 -4,2 -1,-1 -7,2 -1,-3 -2,-5 -3,-7 -5,3 -10,6 -8,-2 2,-4 2,0 2,-10 -7,1 -4,5 -14,5l0 -5c-9,1 -2,3 -10,4l0 -9c-6,1 -6,3 -12,4 -4,1 -1,0 -6,0l0 -10c-6,0 -4,1 -8,4l0 -7c-4,1 -5,4 -10,5 -5,2 -2,-1 -1,-3 2,-4 1,-1 1,-6 0,-2 4,-5 -2,-4 -2,1 -3,3 -6,4 0,-6 2,-2 -2,-3 -3,2 -3,3 -7,3 -5,-1 -4,-2 -7,-5 -2,2 -3,4 -6,5l-4 0c-5,1 -4,-2 -9,2 0,-6 2,-7 0,-8 -4,-2 -6,2 -6,4l-2 -5c-11,3 -10,6 -9,-6 -5,1 -5,1 -7,5 -2,-2 -1,-5 -1,-7 0,-3 -1,-4 -1,-7 -2,0 -3,1 -7,1 1,-4 1,-2 0,-5 -6,1 -7,6 -14,5 -3,0 -5,-2 -4,2 1,7 4,5 -2,8 0,-11 -3,-1 -3,-13 -5,1 -2,0 -5,2 -7,6 -3,3 -14,2 1,6 3,4 3,12l-10 1c0,0 -1,0 -1,0 -3,1 -3,2 -5,5 -2,-1 -3,-2 -6,-3 0,8 1,3 2,9 -10,3 -1,3 -11,0 0,6 3,12 6,16l-3 0 0 -6c-10,3 -8,10 -19,4 0,7 1,8 3,13 -6,0 -2,1 -5,1 -3,1 -2,0 -6,-1 0,4 0,2 1,5 -3,-1 -4,-1 -7,-1 1,2 1,4 2,6 -7,0 -3,-3 -8,0 -5,3 -2,4 -10,4 1,-4 2,-2 0,-5 -1,1 -2,1 -4,2 -2,2 -1,2 -4,3 -2,1 -2,1 -5,1 -3,-1 -5,-3 -5,1 1,4 1,2 2,3 3,9 -4,4 -6,5 -4,1 1,-1 -2,5 -2,-1 -3,-2 -6,-2 -3,5 -1,5 -6,3 2,-8 5,3 5,-15 -4,2 -5,4 -9,6 -2,0 -9,-2 -9,0 0,8 1,9 7,9l-1 1c-2,3 -1,3 -4,12 -6,-1 -3,0 -6,3l-4 1c5,11 1,8 -5,6 1,6 2,4 3,9 -2,1 2,1 -4,0 0,9 2,3 2,10 10,1 7,9 9,14 -1,1 1,1 -2,1 0,0 -2,-1 -3,-1 0,7 2,10 3,15 0,0 0,0 0,0 0,1 0,1 0,1 0,1 0,1 1,3 1,4 1,2 1,7l5 0c0,0 1,2 1,3 0,0 0,2 0,2 0,10 7,10 8,16 -6,0 -10,-6 -7,4 4,13 6,-3 9,9l11 0c2,8 2,3 8,5 -1,-7 -3,-3 1,-9 6,3 -1,0 4,3l2 1c2,0 2,0 4,0 3,1 2,0 4,4 4,5 3,2 7,5 5,4 -2,2 5,4 5,0 3,-1 3,-2 0,-3 0,-2 -1,-2 -5,-9 2,6 -2,-3 7,3 8,0 12,1l10 6c5,2 1,3 8,3 6,0 1,-2 1,-7 5,-2 5,-2 4,-6 5,-1 3,0 6,-2 1,3 2,5 5,6l1 1c-2,2 -3,0 -5,3 -1,2 2,0 -1,2l-2 1c-2,1 -5,3 -7,4 -7,3 -6,1 -10,1 -5,0 -3,5 -20,5 -1,7 -7,4 -12,4 0,6 4,9 -1,10 -6,1 1,-1 -5,-1l-5 1c1,3 1,3 1,6 -7,2 -3,1 -10,0 1,7 2,4 3,11 4,0 2,-1 5,1 5,3 6,9 9,14 -5,-1 -5,-1 -12,-1 3,14 5,7 11,16 4,7 12,10 18,14 3,3 11,3 13,-1 4,3 2,3 8,4l12 2 -1 -5zm44 -60l8 7 -8 0 0 -7zm21 4c1,-1 5,2 1,1 0,0 -3,1 -1,-1zm126 -13l0 4 -3 0c1,-3 -1,-2 3,-4zm52 -6c1,-1 4,2 1,1 0,0 -4,1 -1,-1zm-154 -2l0 -4 4 0c1,4 1,2 3,5 0,1 0,0 1,2l6 4c4,3 -3,3 6,3 2,7 3,6 1,13 -6,17 -7,10 -20,8 -29,-3 -12,-5 -15,-14 -1,-3 -2,-2 -3,-6 4,-1 4,-1 7,-3 -1,-2 -1,-2 -2,-6 4,2 4,1 9,1 -1,-5 -3,-3 3,-3zm13 -4c-4,-4 3,3 0,0zm146 -7c1,2 1,2 2,4 -3,-1 -2,0 -2,-4zm42 0l0 1c0,0 -1,0 0,-1zm-244 -6c0,0 3,-2 5,-2l-5 2zm111 -8c4,4 6,6 8,11 -9,2 -3,4 -11,2 0,-6 1,-4 5,-6l-2 -6c0,0 1,0 0,-1zm-68 4c-15,7 -15,9 -15,-2 -8,2 -2,5 -12,5l0 -3c-5,0 -6,1 -9,4 0,-6 0,-6 -1,-10 5,-1 3,-1 5,-4 14,10 7,-2 8,-2 1,-4 0,0 8,-1 1,0 2,-3 8,2 4,3 7,6 8,11zm56 -10c2,-3 8,-9 12,-10 1,3 4,9 -12,10zm-22 -10c16,1 2,5 14,5 -7,13 -6,9 -11,9 0,-7 -3,-7 -3,-14zm-51 2l1 1c0,0 -1,0 -1,-1zm-43 3l7 0c-4,5 -8,1 -9,-1 -1,-2 -3,0 0,-2 3,-3 2,1 2,3zm65 -4l5 -2c1,3 5,14 5,16 -2,8 -9,-2 -11,-5 2,-4 -1,-1 5,-4l-4 -5zm165 -4c0,4 1,7 -2,4 -3,-2 -1,-2 2,-4zm-182 -2c0,-3 3,0 1,0 0,0 -1,3 -1,0zm87 6c-2,-3 0,-1 -4,-2l0 -3c15,-4 22,-15 27,-16 -1,5 0,4 -1,6 -1,7 -8,4 -12,4 0,4 2,5 -1,8 -2,1 -7,2 -9,3zm145 -9c1,-1 4,2 1,1 0,0 -4,1 -1,-1zm-155 -2c2,2 1,1 -3,3 -2,2 -2,2 -4,4 -3,2 -6,4 -9,5 2,-6 1,-7 9,-10 4,-2 5,-1 7,-2zm-137 0c0,-4 0,-4 1,-7 6,2 3,3 11,3 7,0 8,-1 9,5 -5,0 -9,-1 -12,-1 -4,1 -9,3 -9,0zm130 -3c-1,2 -4,0 -2,-1 2,-2 0,-2 2,1zm-70 -2c3,1 3,0 4,3 1,1 3,1 0,2 -3,1 -6,-2 -4,-5zm51 1l1 0c0,0 -1,0 -1,0zm139 -3c0,-3 4,0 1,0 -1,1 -1,3 -1,0zm-148 -1c0,-3 3,0 2,0l-1 0c-2,0 0,3 -1,0zm-95 -5l1 -1 4 2c-2,0 -4,0 -5,-1zm274 0l0 -4 4 0c-1,6 1,2 -4,4zm-287 -5l0 4 -5 0c2,-5 1,-4 5,-4zm77 -8l2 0c1,6 2,5 3,9 3,8 -1,4 -4,4 -6,0 0,2 -5,0 1,-3 3,-3 4,-5 0,0 0,-1 0,-1l0 -7zm81 4l0 15c-8,2 -9,8 -14,0 3,-4 1,0 5,-4 5,-5 1,-2 1,-4 0,-2 0,-4 4,-6 0,0 0,0 0,0 2,-1 1,-1 4,-1zm8 8c0,-10 3,-8 3,-15l4 0c0,1 4,7 -7,15zm-55 -19c3,4 2,1 2,6 -5,1 -4,3 -5,0 -1,-3 1,-5 3,-6zm48 4l1 0c0,0 -1,0 -1,0zm-113 -4c0,8 1,4 -3,4 -3,0 0,-2 -2,0l3 10c-5,-2 -2,-2 -7,-3 -1,14 1,5 2,14 -24,-5 -8,-8 -21,-11 5,-6 0,3 5,-8 6,3 7,2 13,1 -2,-3 -1,-1 -1,-6 4,0 4,-1 7,-3 -2,-3 -7,-6 2,-6 5,0 3,5 7,8l2 1c0,0 0,0 0,0 0,0 1,0 1,0 -4,2 -5,1 -8,-1zm0 -13c4,1 3,0 4,4l-4 -4zm-104 -4c0,-3 4,-3 4,1 1,4 -4,1 -4,-1zm166 -1l1 0c0,0 -1,0 -1,0zm3 -3c0,-3 2,0 1,0 0,0 -1,4 -1,0zm-58 -5c3,3 4,6 6,9 -15,0 -6,-7 -6,-9zm2 -7c4,1 3,0 5,3l4 7c-2,-2 -7,-8 -9,-10zm29 2l0 -1c0,-2 -1,-2 0,0 1,2 3,4 0,1zm70 -5c0,-1 3,-6 2,-1 0,0 0,0 -1,1 0,0 -1,4 -1,0zm22 -2c4,1 2,0 4,3 -7,-3 -2,0 -4,-3zm-78 7c3,6 2,8 -1,13 -2,6 -1,8 -1,15 -9,-6 -2,-10 -6,-18 0,0 -1,-1 -1,-1 7,-3 5,-1 5,-11 0,0 0,-1 0,0 0,0 -1,0 -1,0 0,0 0,-1 -1,-1 -2,-1 -2,-1 -3,-3 5,-1 5,-1 5,-6 7,3 7,2 11,1 3,-1 -1,-1 2,0 1,0 2,3 3,4 -8,11 -5,4 -12,7zm68 -9c0,-3 2,0 0,0 0,0 0,4 0,0zm-92 -6c0,-3 5,0 1,0 -1,0 -1,3 -1,0zm-28 -2l1 0c0,0 -1,0 -1,0zm26 -4l0 0c0,0 -1,0 0,0zm165 -10l0 0c0,0 0,0 0,0zm-211 1c-4,1 0,-5 0,-2 0,0 1,2 0,2zm208 -4c0,-3 7,0 1,0 0,0 -1,3 -1,0zm-156 -3c5,1 5,1 5,6 -3,-2 -1,-1 -3,-3 -1,-1 -1,-2 -2,-3zm81 -8c2,-3 4,3 2,1 -1,-1 -4,0 -2,-1zm5 -4c-1,4 3,2 -4,2 2,-1 2,-1 4,-2zm-103 -22c2,-1 7,2 3,1 -2,0 -5,1 -3,-1zm-7 -9c0,0 5,-2 1,0 0,0 -2,4 -1,0zm38 -1l0 0c0,0 0,0 0,0z"/>
   <path class="fil15" d="M1624 2646l243 -93 653 -114 1023 -44 633 -126 333 47 0 683 -2851 0c-8,-70 -38,-346 -34,-353z"/>
   <path class="fil16" d="M2926 2995l-1574 0c30,-113 36,-254 88,-345l188 0c-23,30 48,49 264,43 327,-39 1255,-2 1034,302z"/>
   <path class="fil14" d="M1544 2987c0,0 260,-59 296,-77 37,-19 -13,-55 -13,-55 0,0 196,-18 237,-41 41,-23 0,-68 0,-68l-151 -69 -159 -13 -41 -28 -142 -45 -123 18 -282 -100 -319 -28 -224 -45 -155 4 -223 -64 -251 -4 0 627 752 0c235,-1 472,-2 626,-5 105,-2 171,-4 172,-7z"/>
   <path class="fil14" d="M806 1881l2 0c2,4 0,7 -3,9 1,1 1,1 1,1 1,2 0,4 -1,5 -3,5 1,2 -1,6 -1,2 -1,2 -2,3 -1,3 0,3 -2,6 -1,1 -1,2 -2,4 1,1 0,0 3,0l-2 2c2,1 2,1 3,2 -4,0 -3,0 -6,0l3 3c-2,2 -2,2 -4,2 -2,2 -3,2 -4,5 4,0 8,-1 10,3 -3,0 -7,0 -9,2l5 0c-1,3 0,3 0,5l-3 -1c2,3 3,0 3,6l-5 1c-1,2 0,2 1,4 -5,0 -10,0 -13,4 0,0 -1,0 -1,1 -1,1 -1,1 -1,1 1,1 3,1 5,2 1,0 2,2 4,3 3,2 5,4 8,7 11,5 13,13 23,20 2,2 1,1 2,4 1,2 2,3 3,5 2,5 4,18 7,22 2,2 4,5 7,7 5,4 11,7 16,13 4,4 23,19 28,21 2,1 4,2 5,3 4,3 3,8 1,11 -1,3 -3,5 -6,7l-6 4c-4,2 -6,4 -8,6 -1,1 -2,2 -3,3 -1,1 -2,1 -4,2 -3,2 -9,3 -19,3 -9,0 -16,-3 -25,-5 -2,0 -4,0 -6,0l-13 -3c-7,0 -11,-2 -18,2 -7,3 -11,7 -15,12 -4,5 -3,5 -5,10 -40,130 -122,182 -123,186 -1,5 -1,2 -4,5 -2,1 -1,1 -3,2 -3,2 -4,5 -6,7l-7 12c-11,23 -10,53 -10,78 -1,5 -2,10 -1,16 0,12 1,21 4,31 1,5 1,8 8,10 5,1 12,0 15,3 3,1 7,6 9,9 2,2 7,9 5,13 -2,4 -24,5 -31,5 -3,1 -6,0 -9,0 -3,0 -5,0 -8,0 -3,0 -12,-3 -14,-4 -2,-1 -8,-7 -9,-10 -4,-4 -3,-7 -5,-12 -5,-11 -3,-19 -6,-30 -3,-11 1,-33 -1,-48 -1,-12 -1,-23 -2,-33 -1,-12 -4,-21 -4,-33 0,-12 0,-5 -2,-10 -1,-1 -1,-3 -1,-5l-2 4c-1,5 -3,1 -6,8 -9,20 -11,13 -16,39 -2,10 -5,20 -8,30 -2,10 -3,21 -6,31 -1,5 -2,8 -3,14 -3,21 1,17 1,24 0,3 -1,4 0,7 2,7 8,4 14,6 14,6 20,27 -3,28 -3,0 -15,0 -18,2l-1 0c-1,0 -1,0 -1,0 0,0 0,0 0,0l-1 0c-8,-2 -17,-6 -22,-12 -3,-3 -5,-6 -6,-10 -2,-4 -4,-8 -4,-13 -2,-16 0,-31 0,-48 0,-16 -3,-31 -1,-48 2,-9 4,-17 6,-27 1,-10 3,-20 4,-29 7,-31 -103,-43 -105,-42 -1,-2 -1,-3 -2,0 -1,5 1,2 -2,12 -6,21 -8,15 -16,24 -6,7 -13,13 -21,19 -4,3 -7,5 -11,8 -3,2 -4,2 -7,4 -6,4 -11,9 -17,12 -18,13 -26,30 -29,50 -3,15 5,26 11,38 7,14 6,20 22,28 11,5 40,2 37,22 -1,9 -8,6 -13,8 -4,3 -11,2 -18,2 -11,0 -25,3 -37,-3 -6,-2 -12,-10 -15,-14l-5 -5c-5,-5 -9,-12 -12,-18 -2,-2 -3,-4 -3,-6l-14 -26c-2,-5 -6,-8 -8,-12 -1,-2 -2,-4 -4,-7 -1,-2 -2,-5 -4,-5 -4,5 -5,17 -4,26 1,9 3,16 6,25 5,17 8,7 20,12 16,8 23,27 -8,27 -5,0 -9,0 -15,0 -5,0 -11,1 -16,0 -17,-2 -20,-23 -24,-38 -4,-17 -7,-35 -10,-52 -3,-23 3,-28 20,-42 5,-3 14,-10 17,-15 2,-2 5,-5 7,-8l13 -19c7,-12 2,-31 2,-40 -3,1 -2,0 -3,3 -7,21 -74,53 -89,69 -18,18 -86,50 -133,70l0 -162c3,0 5,0 6,-1 2,-1 5,-4 6,-5 58,-51 93,-88 161,-130 4,-2 0,-3 9,-8l23 -13c2,-2 2,-4 4,-5 4,-2 14,-7 19,-8 20,-9 12,-9 38,-16 6,-2 9,-3 14,-5 5,-1 10,-2 16,-3 5,-1 9,-2 14,-4 7,-2 7,-2 15,-2 6,0 11,0 17,0 1,-2 0,-2 3,-2 5,0 13,0 18,0 7,1 9,-2 16,-1 3,0 7,1 9,1 3,-1 4,-2 8,-2 7,-1 23,4 35,2 1,0 5,0 7,0 3,0 7,0 10,0 6,0 14,1 18,1 3,-1 6,-1 8,-1 1,0 3,0 4,0 1,0 2,0 3,0 0,-1 0,-1 0,-2 6,-1 23,2 23,1l2 -2c1,0 3,0 4,-1 8,-2 15,-4 24,-3 3,1 14,0 17,-1 5,0 3,-2 7,-2 13,-2 24,2 40,-7 3,-1 0,-2 3,-5 3,-1 4,-1 6,-2 2,-2 4,-3 5,-4 3,-1 6,-1 7,-3l-4 0c2,-5 11,-9 17,-10 0,-3 0,-3 4,-4 7,-3 7,-7 12,-11l19 -13c-2,0 -1,-1 0,-2 4,-3 7,-6 11,-8 3,-2 5,-2 8,-4l14 -10c1,-2 2,-2 4,-3 2,-1 2,0 4,-2 3,-2 9,-9 12,-12 4,-4 6,-9 11,-14 7,-5 6,-13 17,-20 1,-1 5,-4 7,-4l8 5c1,1 2,3 2,4 2,3 1,1 4,3 2,-2 3,-3 4,-4l4 -4c1,-1 1,-1 1,-1 4,-5 9,-7 14,-10 3,-2 8,-7 11,-10l12 -9 0 0z"/>
   <path class="fil17" d="M598 2444c43,-20 82,-26 120,-23 -33,-5 -70,-5 -117,11 31,-33 75,-44 121,-52 -50,5 -97,15 -135,45 4,-42 48,-55 76,-52 -35,-9 -83,3 -89,48 -6,-63 -20,-89 -41,-87 18,8 27,32 24,82 -11,-26 -33,-23 -60,-8 34,-12 56,-4 58,36 0,0 43,2 43,0z"/>
   <path class="fil14" d="M1092 2522c43,-21 83,-26 121,-24 -33,-5 -70,-5 -117,11 31,-32 75,-44 120,-52 -49,5 -96,15 -135,46 5,-42 49,-56 77,-53 -35,-8 -83,4 -89,48 -6,-62 -21,-88 -41,-86 18,8 27,32 24,81 -11,-25 -33,-22 -60,-8 34,-12 56,-4 58,37 0,0 42,1 42,0z"/>
   <path class="fil14" d="M1148 2550c-43,-20 -82,-26 -120,-24 33,-5 70,-4 117,11 -31,-32 -75,-43 -121,-51 50,4 97,15 135,45 -4,-42 -48,-55 -76,-52 35,-9 83,3 89,47 6,-62 20,-88 41,-86 -18,8 -27,32 -24,82 11,-26 33,-23 60,-8 -34,-13 -56,-4 -58,36 0,0 -43,2 -43,0z"/>
   <path class="fil17" d="M1651 2626c-34,-16 -65,-20 -95,-19 26,-3 55,-3 93,9 -25,-25 -59,-34 -95,-41 38,4 76,12 106,36 -4,-33 -38,-43 -61,-41 28,-7 66,3 71,37 4,-48 16,-69 32,-67 -14,6 -21,25 -19,64 9,-20 26,-18 47,-6 -27,-10 -44,-4 -46,28 0,0 -33,1 -33,0z"/>
   <path class="fil14" d="M535 2446l60 0 -3 -8 -11 -15 -9 -3 -13 -12 -14 -7 -20 5 -16 -4 -16 5 -17 14 -15 6 -4 13 13 10c0,0 66,-4 65,-4z"/>
   <path class="fil14" d="M1003 2501l61 0 -3 -7 -11 -15 -10 -3 -12 -12 -14 -7 -20 5 -16 -4 -16 5 -17 14 -16 6 -3 13 13 10c0,0 66,-5 64,-5z"/>
   <path class="fil14" d="M2880 2432c-335,69 -549,91 -645,67 -2,-29 12,-52 42,-67 -5,-19 3,-28 23,-25 -5,-32 8,-44 39,-37 6,-30 26,-38 61,-25 17,-18 42,-21 75,-9 23,-35 51,-39 84,-10 22,-13 43,-8 62,14 17,-13 35,-11 52,7 33,-14 58,-6 75,25 27,-11 48,-3 63,23 39,-18 62,-6 69,37z"/>
   <path class="fil10" d="M3788 2026l15 0 0 -12 12 0 0 12 86 0 43 50 0 52 -195 0 0 -66c0,0 40,-38 39,-36z"/>
   <path class="fil14" d="M2864 2458l0 -143 56 -82 79 0 0 -25 31 0 0 25 107 0 171 -115 119 118 0 238c0,0 -572,-16 -563,-16z"/>
   <path class="fil10" d="M2440 2262l0 -56 22 -31 30 0 0 -9 12 0 0 9 42 0 65 -44 46 45 0 92c0,0 -220,-6 -217,-6z"/>
  </g>
 </g>
</svg>
